# xmcd
#
# Track frame offsets: 
#        150
#        14585
#        22516
#        39105
#        49068
#        65908
#        82147
#        97642
#        112392
#        129053
#        135933
#        146032
#
# Disc length: 2135 seconds
#
# Revision: 0
# Processed by: cddbd v1.5.2PL0 Copyright (c) Steve Scherf et al.
# Submitted via: ExactAudioCopy v0.99pb4
#
DISCID=9608550c
DTITLE=Rita Engedalen - The Tree StillStanding
DYEAR=2008
DGENRE=Blues
TTITLE0=Where Does Everybody Go
TTITLE1=Keep On Going
TTITLE2=They Called Her Shewolf
TTITLE3=Jump Baby Jump
TTITLE4=Lord Help The Poor And Needy
TTITLE5=Shine With Me
TTITLE6=They Go From The North To The South
TTITLE7=Issaquena
TTITLE8=Let Go
TTITLE9=You Are The Light
TTITLE10=Turtle Blues
TTITLE11=I Am Changed
EXTD=
EXTT0=
EXTT1=
EXTT2=
EXTT3=
EXTT4=
EXTT5=
EXTT6=
EXTT7=
EXTT8=
EXTT9=
EXTT10=
EXTT11=
PLAYORDER=
